<svg width="372" height="62" viewBox="0 0 372 62" fill="none" xmlns="http://www.w3.org/2000/svg">
<path d="M0 28C0 14.7452 10.7452 4 24 4C37.2548 4 48 14.7452 48 28C48 41.2548 37.2548 52 24 52C10.7452 52 0 41.2548 0 28Z" fill="#0073E6"/>
<path d="M6.96519 33.1747C6.96519 33.2938 6.92737 33.3929 6.85172 33.4719C6.77625 33.5514 6.68169 33.591 6.56803 33.5908H5.89705C5.78358 33.5908 5.6891 33.5512 5.61364 33.4719C5.57625 33.4329 5.54692 33.3865 5.52741 33.3354C5.50791 33.2843 5.49864 33.2296 5.50016 33.1747V31.3722C5.50016 31.2532 5.53799 31.1542 5.61364 31.0749C5.6891 30.9955 5.78358 30.9559 5.89705 30.9561H6.10509C6.19472 30.8324 6.27503 30.6787 6.34602 30.5054C6.41701 30.3273 6.47347 30.1389 6.52555 29.9259C6.57297 29.718 6.61545 29.5002 6.64834 29.2773C6.68151 29.0543 6.70042 28.8317 6.71467 28.6135L6.75716 27.9649C6.7592 27.9088 6.77195 27.8537 6.79467 27.8027C6.8174 27.7517 6.84964 27.7059 6.88954 27.6679C6.92748 27.6292 6.9725 27.5987 7.02197 27.5783C7.07144 27.5578 7.12435 27.5478 7.17762 27.5488H10.1266C10.2401 27.5488 10.3346 27.5885 10.4103 27.6679C10.4857 27.7469 10.5235 27.8459 10.5235 27.9649V30.9561H10.9111C11.0245 30.9561 11.1191 30.9958 11.1947 31.0752C11.2702 31.1543 11.3079 31.2532 11.3079 31.3722V33.1747C11.3079 33.2938 11.2702 33.3929 11.1947 33.4719C11.1191 33.5514 11.0245 33.591 10.9111 33.5908H10.2401C10.1266 33.5908 10.032 33.5512 9.95638 33.4719C9.91905 33.4329 9.88976 33.3864 9.87031 33.3353C9.85085 33.2842 9.84162 33.2296 9.84318 33.1747V32.4911H6.96519V33.1747ZM8.94963 29.0841H8.24604L8.22685 29.2826C8.1797 29.6985 8.11337 30.0451 8.0284 30.3176C7.94344 30.5902 7.85353 30.8026 7.75431 30.9564H8.94991L8.94963 29.0841ZM13.359 30.5647C13.4346 30.7975 13.5763 30.9711 13.7748 31.08C13.9735 31.189 14.2051 31.2434 14.465 31.2434C14.6398 31.2434 14.7958 31.2335 14.9282 31.2088C15.0608 31.1875 15.1907 31.151 15.3155 31.0999C15.3911 31.0701 15.4714 31.0551 15.5471 31.0551C15.717 31.0551 15.8354 31.1345 15.9157 31.2879L16.0857 31.6397C16.1142 31.6992 16.1284 31.7633 16.1284 31.8376C16.1284 32.001 16.0668 32.1198 15.9393 32.1993C15.6367 32.3774 15.3626 32.4863 15.1074 32.5408C14.8572 32.5904 14.5877 32.6202 14.2994 32.6202C13.9074 32.6202 13.5528 32.5558 13.2408 32.4318C12.9396 32.3166 12.6658 32.136 12.4378 31.902C12.2155 31.6743 12.0453 31.402 11.9225 31.0749C11.7994 30.753 11.738 30.3965 11.738 30.0102C11.738 29.6486 11.7995 29.3119 11.9225 28.9999C12.0402 28.6905 12.2153 28.4079 12.4378 28.168C12.6646 27.9253 12.9382 27.7346 13.2408 27.6083C13.5574 27.4748 13.9072 27.4053 14.2994 27.4053C14.602 27.4053 14.8903 27.4597 15.1642 27.5686C15.4383 27.6776 15.6841 27.8361 15.8922 28.044C16.1052 28.2539 16.2768 28.5045 16.3976 28.782C16.5253 29.0693 16.5867 29.3862 16.5867 29.7379C16.5867 29.9359 16.5774 30.0995 16.5538 30.2331C16.5396 30.3125 16.4968 30.3866 16.4214 30.4609C16.3458 30.5304 16.2748 30.565 16.1945 30.565L13.359 30.5647ZM15.0082 29.4656C15.0082 29.2971 14.9422 29.1386 14.8144 28.9999C14.687 28.8563 14.4932 28.7871 14.2427 28.7871C13.9781 28.7871 13.7749 28.8465 13.6331 28.9653C13.4913 29.0844 13.3826 29.2528 13.3069 29.4704H15.0082V29.4656Z" fill="white"/>
<path fill-rule="evenodd" clip-rule="evenodd" d="M18.7652 32.4914C18.6519 32.4914 18.5574 32.4517 18.4818 32.3723C18.4445 32.3333 18.4152 32.287 18.3957 32.236C18.3762 32.185 18.3669 32.1304 18.3683 32.0756V29.193H17.4043C17.2909 29.193 17.1963 29.1534 17.1206 29.0742C17.0833 29.0352 17.054 28.9888 17.0345 28.9377C17.015 28.8867 17.0057 28.8321 17.0072 28.7772V27.9649C17.0072 27.8459 17.045 27.7469 17.1206 27.6679C17.1963 27.5885 17.2909 27.5488 17.4043 27.5488H20.9108C21.0241 27.5488 21.1186 27.5885 21.1942 27.6679C21.2699 27.7469 21.3077 27.8459 21.3077 27.9649V28.7772C21.3077 28.8961 21.2699 28.9951 21.1942 29.0742C21.1188 29.1536 21.0243 29.1933 20.9108 29.1933H19.9468V32.0753C19.9468 32.1943 19.909 32.2933 19.8334 32.3726C19.7579 32.452 19.6633 32.4916 19.5497 32.4914H18.7652ZM25.1308 29.1485C24.8805 29.0149 24.6393 28.9505 24.4077 28.9505C24.2803 28.9505 24.1575 28.9704 24.0393 29.0149C23.9195 29.0613 23.8089 29.1301 23.7132 29.218C23.6135 29.3128 23.5331 29.4272 23.4769 29.5546C23.4155 29.6882 23.387 29.842 23.387 30.0153C23.387 30.1835 23.4201 30.3321 23.4815 30.466C23.5429 30.5996 23.6233 30.7085 23.7227 30.8026C23.822 30.8968 23.9305 30.966 24.0533 31.0105C24.1764 31.0602 24.2992 31.08 24.4266 31.08C24.6725 31.08 24.9183 31.0006 25.1639 30.8372C25.2538 30.7729 25.3531 30.738 25.4572 30.738C25.5893 30.738 25.698 30.7975 25.7831 30.9167L26.1093 31.3671C26.1658 31.4465 26.1943 31.5356 26.1943 31.6297C26.1943 31.7783 26.1375 31.8921 26.024 31.9814C25.7075 32.2438 25.4098 32.4171 25.1308 32.4962C24.852 32.5756 24.5826 32.6154 24.3323 32.6154C23.9352 32.6154 23.5714 32.5507 23.2453 32.427C22.9357 32.3117 22.6526 32.1313 22.4137 31.8972C22.1828 31.6642 22.0038 31.382 21.8891 31.0701C21.7663 30.7482 21.7046 30.3917 21.7046 30.0053C21.7027 29.6599 21.7637 29.3171 21.8844 28.995C21.9984 28.6849 22.172 28.4019 22.3948 28.1631C22.6199 27.9228 22.89 27.7324 23.1885 27.6035C23.4955 27.4696 23.8359 27.4004 24.2046 27.4004C24.5213 27.4004 24.8049 27.4301 25.0554 27.4895C25.3056 27.5491 25.5751 27.6727 25.8538 27.8659C26.0101 27.97 26.0854 28.0985 26.0854 28.2522C26.0854 28.3265 26.0665 28.3957 26.024 28.4601L25.7217 28.9899C25.6367 29.1386 25.5183 29.208 25.3627 29.208C25.2812 29.2138 25.2001 29.193 25.1308 29.1485ZM28.6562 30.129V32.0753C28.6562 32.1943 28.6184 32.2933 28.543 32.3726C28.4673 32.452 28.3728 32.4916 28.2593 32.4914H27.4847C27.3712 32.4914 27.2767 32.4517 27.201 32.3723C27.1637 32.3333 27.1343 32.2869 27.1148 32.2358C27.0953 32.1848 27.086 32.1302 27.0875 32.0753V27.9598C27.0875 27.841 27.1254 27.742 27.201 27.6628C27.2765 27.5834 27.371 27.5438 27.4847 27.544H28.2596C28.373 27.544 28.4676 27.5836 28.5432 27.6628C28.6187 27.7422 28.6564 27.8413 28.6564 27.9601V29.6982L29.8759 27.8162C29.9332 27.7344 30.0075 27.6667 30.0932 27.6183C30.1829 27.5686 30.2728 27.5389 30.372 27.5389H31.1093C31.2272 27.5389 31.3267 27.5837 31.4023 27.6727C31.478 27.7616 31.5158 27.8607 31.5158 27.97C31.5158 28.0589 31.4875 28.143 31.4308 28.2224L30.3199 29.7626L30.8352 30.5006C31.0289 30.7729 31.2179 30.9313 31.4023 30.9759C31.5629 31.0105 31.6715 31.0701 31.7236 31.1393C31.7756 31.2136 31.8039 31.3325 31.8039 31.501V32.1743C31.8039 32.2636 31.771 32.3428 31.7093 32.4171C31.6476 32.4914 31.5723 32.5359 31.4873 32.5507C31.4305 32.5558 31.3787 32.5657 31.3313 32.5657C31.2794 32.5699 31.2274 32.5715 31.1754 32.5705C31.0479 32.5705 30.9205 32.5558 30.7834 32.526C30.6464 32.4962 30.5093 32.4418 30.3723 32.3675C30.2352 32.2883 30.0982 32.1842 29.9611 32.0407C29.8241 31.902 29.687 31.7239 29.5451 31.501L28.6562 30.129ZM36.3404 32.4914C36.2269 32.4914 36.1324 32.4517 36.0567 32.3723C36.0194 32.3333 35.9901 32.2869 35.9707 32.2358C35.9512 32.1848 35.942 32.1302 35.9435 32.0753V29.9066L34.4406 32.2194C34.3871 32.2961 34.3216 32.363 34.2469 32.4174C34.1712 32.467 34.0862 32.4968 33.9917 32.4968H33.0891C32.9756 32.4968 32.8811 32.4571 32.8054 32.3777C32.7681 32.3387 32.7388 32.2922 32.7194 32.2412C32.6999 32.1902 32.6907 32.1356 32.6922 32.0807V27.9649C32.6922 27.8459 32.7299 27.7469 32.8054 27.6679C32.8811 27.5885 32.9756 27.5488 33.0891 27.5488H33.864C33.9776 27.5488 34.0722 27.5885 34.1476 27.6679C34.2233 27.7469 34.2611 27.8459 34.2611 27.9649V30.1341L35.764 27.8214C35.8204 27.7419 35.8818 27.6727 35.9531 27.6231C36.0238 27.5737 36.1088 27.544 36.2033 27.544H37.1155C37.2288 27.544 37.3233 27.5836 37.3989 27.6628C37.4746 27.7422 37.5124 27.8413 37.5124 27.9601V32.0756C37.5124 32.1942 37.4746 32.2931 37.3989 32.3726C37.3233 32.452 37.2288 32.4916 37.1155 32.4914H36.3404Z" fill="white"/>
<path d="M42.328 32.4914C42.2145 32.4914 42.1199 32.4517 42.0443 32.3723C42.007 32.3333 41.9777 32.2869 41.9583 32.2358C41.9388 32.1848 41.9296 32.1302 41.9311 32.0753V29.9066L40.4282 32.2194C40.3747 32.2961 40.3092 32.363 40.2344 32.4174C40.1588 32.467 40.0738 32.4968 39.9793 32.4968H39.0767C38.9632 32.4968 38.8686 32.4571 38.793 32.3777C38.7556 32.3387 38.7263 32.2923 38.7068 32.2412C38.6873 32.1902 38.678 32.1356 38.6795 32.0807V27.9649C38.6795 27.8459 38.7173 27.7469 38.793 27.6679C38.8685 27.5885 38.963 27.5488 39.0767 27.5488H39.8515C39.965 27.5488 40.0596 27.5885 40.1352 27.6679C40.2109 27.7469 40.2487 27.8459 40.2487 27.9649V30.1341L41.7513 27.8214C41.808 27.7419 41.8694 27.6727 41.9404 27.6231C42.0114 27.5735 42.0964 27.544 42.1909 27.544H43.1028C43.2163 27.544 43.3109 27.5836 43.3865 27.6628C43.4622 27.7422 43.5 27.8413 43.5 27.9601V32.0756C43.5 32.1942 43.4622 32.2931 43.3865 32.3726C43.3111 32.452 43.2165 32.4916 43.1028 32.4914H42.328ZM42.0964 25.375C42.3044 25.375 42.465 25.4391 42.5736 25.563C42.6824 25.6867 42.7345 25.8504 42.7345 26.0483C42.7345 26.3357 42.5974 26.5782 42.328 26.7764C42.0585 26.9744 41.657 27.0734 41.1274 27.0734C40.5417 27.0734 40.116 26.9744 39.8611 26.7764C39.6059 26.5783 39.4782 26.3356 39.4782 26.0483C39.4782 25.8504 39.5303 25.6867 39.6345 25.563C39.7386 25.4394 39.899 25.3747 40.1067 25.3747C40.2865 25.3747 40.4236 25.4144 40.5039 25.4938C40.5888 25.573 40.6456 25.672 40.6834 25.7908C40.7163 25.8901 40.7684 25.974 40.8298 26.0384C40.8912 26.1028 40.9904 26.1326 41.1231 26.1326C41.2409 26.1326 41.3308 26.1028 41.3876 26.0384C41.4443 25.974 41.4868 25.8898 41.5246 25.7908C41.5547 25.6755 41.6172 25.5721 41.7041 25.4936C41.7891 25.4144 41.9215 25.375 42.0964 25.375Z" fill="white"/>
<path fill-rule="evenodd" clip-rule="evenodd" d="M38.6729 20.4316C38.384 21.2507 38.0905 21.8489 37.8635 22.2497C37.6297 22.6615 37.1736 22.8776 36.726 22.7869C36.2976 22.7004 35.6826 22.541 34.8923 22.2485C34.1029 21.9564 33.5309 21.6756 33.1477 21.4623C32.9518 21.3522 32.7943 21.1812 32.6974 20.9735C32.6005 20.7657 32.5691 20.5317 32.6078 20.3045C32.6831 19.8467 32.8306 19.1952 33.1195 18.3758C33.4087 17.5561 33.702 16.9585 33.9292 16.5577C34.1627 16.1461 34.6188 15.93 35.0667 16.0205C35.4945 16.107 36.1093 16.2664 36.899 16.5583C37.6892 16.8512 38.2612 17.1312 38.645 17.3453C38.8407 17.4555 38.9981 17.6265 39.0949 17.8342C39.1917 18.0419 39.223 18.2758 39.1844 18.5029C39.1093 18.9604 38.9618 19.6124 38.6729 20.4316Z" fill="#00C2FC"/>
<path fill-rule="evenodd" clip-rule="evenodd" d="M30.9991 18.3639C31.2913 19.1802 31.4415 19.8308 31.5188 20.2869C31.5586 20.5136 31.5284 20.7474 31.4327 20.9554C31.3369 21.1633 31.1803 21.3348 30.9851 21.4456C30.603 21.6611 30.0329 21.9436 29.2452 22.2398C28.4585 22.5353 27.8451 22.697 27.4183 22.7857C26.9716 22.8785 26.5152 22.6652 26.28 22.2554C26.0509 21.8557 25.7557 21.2601 25.4632 20.4438C25.1713 19.6266 25.0211 18.9768 24.9438 18.5207C24.9041 18.294 24.9343 18.0601 25.0301 17.8521C25.1258 17.6441 25.2823 17.4725 25.4775 17.3615C25.859 17.1465 26.4291 16.864 27.2158 16.5679C28.0038 16.2723 28.6172 16.1104 29.0448 16.0213C29.4913 15.9289 29.948 16.1427 30.1826 16.5523C30.4117 16.9514 30.7072 17.5473 30.9991 18.3639Z" fill="#00A743"/>
<path fill-rule="evenodd" clip-rule="evenodd" d="M23.3431 20.4316C23.0545 21.2507 22.7609 21.8489 22.5337 22.2497C22.3002 22.6615 21.8438 22.8776 21.3962 22.7869C20.9678 22.7004 20.353 22.541 19.5625 22.2485C18.7731 21.9564 18.2011 21.6756 17.8179 21.4623C17.622 21.3522 17.4645 21.1812 17.3676 20.9735C17.2707 20.7657 17.2393 20.5317 17.278 20.3045C17.3533 19.8467 17.5011 19.1952 17.7897 18.3758C18.0791 17.5561 18.3721 16.9585 18.5994 16.5577C18.8332 16.1461 19.289 15.93 19.7369 16.0205C20.165 16.107 20.7795 16.2664 21.5695 16.5583C22.3594 16.8512 22.9317 17.1312 23.3154 17.3453C23.5112 17.4555 23.6686 17.6265 23.7654 17.8342C23.8622 18.0419 23.8935 18.2758 23.8548 18.5029C23.7797 18.9604 23.6323 19.6124 23.3431 20.4316Z" fill="#FABC22"/>
<path fill-rule="evenodd" clip-rule="evenodd" d="M15.6693 18.3639C15.9615 19.1802 16.1117 19.8308 16.1893 20.2869C16.229 20.5136 16.1989 20.7475 16.103 20.9554C16.0072 21.1634 15.8506 21.3349 15.6553 21.4456C15.2735 21.6611 14.7031 21.9436 13.9157 22.2398C13.1287 22.5353 12.5153 22.697 12.0885 22.7857C11.8691 22.8301 11.6418 22.8029 11.438 22.7079C11.2341 22.6129 11.0638 22.4548 10.9505 22.2554C10.7214 21.8557 10.4259 21.2601 10.1337 20.4438C9.8418 19.6266 9.69132 18.9768 9.6143 18.5207C9.5746 18.294 9.60477 18.0601 9.70053 17.8521C9.79629 17.6441 9.95281 17.4725 10.148 17.3615C10.5295 17.1465 11.0993 16.864 11.8863 16.5679C12.6743 16.2723 13.2872 16.1104 13.7147 16.0213C14.161 15.9289 14.6179 16.1427 14.8522 16.5523C15.0814 16.9514 15.3774 17.5473 15.6693 18.3639Z" fill="#F72A16"/>
<path fill-rule="evenodd" clip-rule="evenodd" d="M17.7449 39.3849C17.7449 39.5038 17.7071 39.6029 17.6314 39.6821C17.5559 39.7615 17.4614 39.8011 17.3477 39.801H16.5729C16.4594 39.801 16.3648 39.7613 16.2892 39.6818C16.2518 39.6429 16.2225 39.5964 16.203 39.5454C16.1835 39.4943 16.1742 39.4397 16.1757 39.3849V35.2693C16.1757 35.1506 16.2135 35.0516 16.2892 34.9724C16.3646 34.8929 16.4592 34.8533 16.5729 34.8535H17.3195C17.499 34.8535 17.6643 34.9377 17.8013 35.1059L19.0065 36.5375L20.1172 35.1159C20.1757 35.0402 20.2459 34.975 20.3249 34.923C20.4006 34.8734 20.4905 34.8535 20.5897 34.8535H21.2938C21.4071 34.8535 21.5016 34.8931 21.5773 34.9724C21.6529 35.0518 21.6907 35.1509 21.6907 35.2696V39.3852C21.6907 39.5037 21.6529 39.6027 21.5773 39.6821C21.5018 39.7615 21.4073 39.8011 21.2938 39.801H20.5187C20.4054 39.801 20.3109 39.7613 20.2353 39.6818C20.198 39.6429 20.1686 39.5964 20.1491 39.5454C20.1296 39.4943 20.1203 39.4397 20.1218 39.3849V37.3694L19.2239 38.429C19.1482 38.5184 19.054 38.5629 18.9498 38.5629C18.8456 38.5629 18.756 38.5232 18.6757 38.4438L17.7399 37.3793V39.3849H17.7449ZM26.497 39.801C26.3835 39.801 26.2889 39.7613 26.2133 39.6818C26.1759 39.6429 26.1466 39.5964 26.1271 39.5454C26.1076 39.4943 26.0983 39.4397 26.0998 39.3849V37.2162L24.5972 39.529C24.5437 39.6056 24.4782 39.6725 24.4034 39.7269C24.3278 39.7766 24.2426 39.8064 24.1483 39.8064H23.2457C23.132 39.8064 23.0375 39.7666 22.962 39.6872C22.9246 39.6482 22.8953 39.6018 22.8758 39.5508C22.8563 39.4997 22.847 39.4451 22.8485 39.3903V35.2744C22.8485 35.1555 22.8863 35.0565 22.962 34.9775C23.0375 34.898 23.132 34.8583 23.2457 34.8583H24.0205C24.134 34.8583 24.2286 34.898 24.3042 34.9775C24.3797 35.0565 24.4174 35.1555 24.4174 35.2744V37.4437L25.9203 35.1309C25.977 35.0515 26.0384 34.9823 26.1094 34.9326C26.1804 34.883 26.2654 34.8535 26.3599 34.8535H27.2718C27.3853 34.8535 27.4799 34.8931 27.5555 34.9724C27.6312 35.0518 27.6689 35.1509 27.6687 35.2696V39.3852C27.6687 39.5037 27.631 39.6027 27.5555 39.6821C27.4799 39.7615 27.3853 39.8011 27.2718 39.801H26.497Z" fill="white"/>
<path d="M30.4051 41.5839C30.4051 41.7027 30.3673 41.8016 30.2916 41.8809C30.2162 41.9603 30.1217 42 30.0082 42H29.2331C29.1198 42 29.0253 41.9603 28.9497 41.8809C28.9123 41.8419 28.883 41.7955 28.8635 41.7444C28.844 41.6934 28.8347 41.6388 28.8362 41.5839V35.2696C28.8362 35.1505 28.874 35.0514 28.9497 34.9724C29.0252 34.8929 29.1196 34.8533 29.2331 34.8535H30.065C30.1107 34.8523 30.1561 34.8609 30.1984 34.8788C30.2407 34.8967 30.2789 34.9236 30.3106 34.9576C30.3769 35.0268 30.4098 35.1108 30.4098 35.2152C30.5422 35.0813 30.7217 34.9675 30.944 34.8683C31.166 34.7693 31.4258 34.7199 31.7189 34.7199C32.0357 34.7199 32.3238 34.7843 32.5839 34.908C32.843 35.0281 33.0712 35.2096 33.2499 35.4378C33.4297 35.6657 33.5715 35.9331 33.6753 36.2402C33.7746 36.5471 33.8266 36.8841 33.8266 37.2505C33.8266 37.6269 33.7652 37.9735 33.6424 38.3003C33.5263 38.6165 33.3512 38.906 33.1272 39.1523C32.9051 39.3948 32.6404 39.5831 32.3284 39.7267C32.0168 39.8654 31.6671 39.9346 31.2841 39.9346C31.1235 39.9346 30.9629 39.9198 30.8069 39.8949C30.6675 39.8742 30.531 39.8361 30.4005 39.7811V41.5839H30.4051ZM30.4051 38.2064C30.5233 38.2807 30.6367 38.33 30.736 38.3547C30.8352 38.3794 30.9722 38.3944 31.1424 38.3944C31.4875 38.3944 31.7378 38.2855 31.9033 38.0677C32.0686 37.8496 32.1489 37.5872 32.1489 37.2803C32.1489 36.993 32.0686 36.7502 31.9126 36.5522C31.7567 36.3542 31.5251 36.255 31.2227 36.255C30.9297 36.255 30.6556 36.4036 30.4051 36.6957V38.2064Z" fill="white"/>
<path d="M64.784 42.4H68.592C70.0107 39.04 71.0933 35.1573 71.84 30.752C72.5867 26.3467 72.96 21.288 72.96 15.576V8.8H96.76V42.4H101.856V55.728H95.976V48H70.664V55.728H64.784V42.4ZM79.12 15.24C79.12 20.6907 78.784 25.656 78.112 30.136C77.4773 34.616 76.4133 38.704 74.92 42.4H90.376V14.4H79.12V15.24ZM116.783 48.448C114.804 48.448 112.975 48.1493 111.295 47.552C109.652 46.9173 108.233 46.04 107.039 44.92C105.844 43.7627 104.911 42.4 104.239 40.832C103.567 39.2267 103.231 37.4347 103.231 35.456C103.231 33.4027 103.585 31.5733 104.295 29.968C105.004 28.3253 105.956 26.944 107.151 25.824C108.345 24.6667 109.745 23.7893 111.351 23.192C112.993 22.5947 114.711 22.296 116.503 22.296C118.481 22.296 120.236 22.6507 121.767 23.36C123.335 24.032 124.641 24.9653 125.687 26.16C126.769 27.3547 127.591 28.736 128.151 30.304C128.711 31.872 128.991 33.5147 128.991 35.232V36.688H109.111C109.409 38.8907 110.287 40.5893 111.743 41.784C113.199 42.9413 115.028 43.52 117.231 43.52C118.761 43.52 120.161 43.24 121.431 42.68C122.737 42.12 123.82 41.336 124.679 40.328L128.151 43.464C126.844 45.1067 125.201 46.3573 123.223 47.216C121.281 48.0373 119.135 48.448 116.783 48.448ZM116.167 27.224C114.412 27.224 112.919 27.7093 111.687 28.68C110.455 29.6507 109.633 31.0133 109.223 32.768H123.111C122.812 31.2 122.047 29.8933 120.815 28.848C119.62 27.7653 118.071 27.224 116.167 27.224ZM138.322 28.008H130.146V22.744H152.49V28.008H144.314V48H138.322V28.008ZM166.597 48.448C164.581 48.448 162.752 48.1307 161.109 47.496C159.504 46.824 158.123 45.9093 156.965 44.752C155.808 43.5947 154.912 42.2133 154.277 40.608C153.68 39.0027 153.381 37.248 153.381 35.344C153.381 33.2907 153.717 31.4613 154.389 29.856C155.061 28.2507 155.995 26.888 157.189 25.768C158.384 24.648 159.784 23.7893 161.389 23.192C162.995 22.5947 164.731 22.296 166.597 22.296C168.688 22.296 170.592 22.6507 172.309 23.36C174.027 24.032 175.427 24.9467 176.509 26.104L173.317 30.304C172.571 29.4453 171.656 28.7547 170.573 28.232C169.491 27.7093 168.296 27.448 166.989 27.448C164.824 27.448 163.051 28.1573 161.669 29.576C160.288 30.9947 159.597 32.88 159.597 35.232C159.597 36.4267 159.784 37.5093 160.157 38.48C160.531 39.4507 161.053 40.3093 161.725 41.056C162.397 41.7653 163.2 42.3253 164.133 42.736C165.067 43.1093 166.093 43.296 167.213 43.296C168.557 43.296 169.752 43.0347 170.797 42.512C171.843 41.952 172.739 41.2427 173.485 40.384L177.013 43.912C175.931 45.3307 174.493 46.4507 172.701 47.272C170.909 48.056 168.875 48.448 166.597 48.448ZM180.683 22.744H186.619V32.264H189.363L196.195 22.744H202.467V23.528L194.235 34.28L204.427 47.16V48H197.763L189.139 36.912H186.619V48H180.683V22.744ZM207.017 22.744H212.953V38.368L225.833 22.744H230.201V48H224.265V31.76L210.881 48H207.017V22.744ZM236.357 22.744H242.293V38.368L255.174 22.744H259.542V48H253.606V31.76L240.221 48H236.357V22.744ZM247.949 19.216C246.792 19.216 245.709 19.0667 244.701 18.768C243.693 18.432 242.816 17.9467 242.069 17.312C241.323 16.6773 240.725 15.8933 240.277 14.96C239.829 13.9893 239.605 12.8693 239.605 11.6H244.141C244.179 12.6827 244.496 13.56 245.093 14.232C245.728 14.904 246.699 15.24 248.005 15.24C249.237 15.24 250.189 14.9227 250.861 14.288C251.533 13.616 251.888 12.72 251.926 11.6H256.405C256.368 12.8693 256.107 13.9893 255.621 14.96C255.173 15.8933 254.557 16.6773 253.773 17.312C253.027 17.9467 252.149 18.432 251.142 18.768C250.133 19.0667 249.069 19.216 247.949 19.216ZM281.533 22.744H286.349L293.629 38.48L300.573 22.744H305.445L309.757 48H304.157L301.581 32.32L294.469 48H292.173L285.117 32.6L282.597 48H277.221L281.533 22.744ZM313.99 22.744H319.926V38.368L332.806 22.744H337.174V48H331.238V31.76L317.854 48H313.99V22.744ZM343.331 61.44V22.744H348.931V26.384C349.677 25.2267 350.797 24.256 352.291 23.472C353.821 22.688 355.595 22.296 357.611 22.296C359.216 22.296 360.747 22.6133 362.203 23.248C363.659 23.8453 364.928 24.7227 366.011 25.88C367.093 27 367.952 28.3627 368.587 29.968C369.259 31.5733 369.595 33.3653 369.595 35.344C369.595 37.3227 369.259 39.1147 368.587 40.72C367.915 42.3253 367.019 43.7067 365.899 44.864C364.816 46.0213 363.547 46.9173 362.091 47.552C360.672 48.1493 359.179 48.448 357.611 48.448C355.819 48.448 354.195 48.112 352.739 47.44C351.32 46.7307 350.163 45.7973 349.267 44.64V61.44H343.331ZM356.267 27.56C354.139 27.56 352.459 28.2507 351.227 29.632C349.995 31.0133 349.341 32.712 349.267 34.728V35.456C349.267 36.5387 349.435 37.5467 349.771 38.48C350.107 39.4133 350.573 40.2347 351.171 40.944C351.805 41.616 352.533 42.1573 353.355 42.568C354.213 42.9787 355.184 43.184 356.267 43.184C358.32 43.184 360 42.4747 361.307 41.056C362.613 39.6373 363.267 37.7333 363.267 35.344C363.267 34.0747 363.08 32.9547 362.707 31.984C362.333 31.0133 361.829 30.2107 361.195 29.576C360.56 28.904 359.813 28.4 358.955 28.064C358.133 27.728 357.237 27.56 356.267 27.56Z" fill="#898989"/>
</svg>
