<svg width="256" height="56" viewBox="0 0 256 56" fill="none" xmlns="http://www.w3.org/2000/svg">
<path d="M0 28C0 14.7452 10.7452 4 24 4C37.2548 4 48 14.7452 48 28C48 41.2548 37.2548 52 24 52C10.7452 52 0 41.2548 0 28Z" fill="#050200"/>
<path d="M25.2341 33.7513C24.4592 33.1903 24.0921 32.3689 24.0921 31.1068C24.0921 29.5242 24.5816 27.601 25.3973 26.7596C25.9683 26.1987 26.784 25.9382 27.8852 25.9382C29.4554 25.9382 31.3927 26.3389 32.1881 27.1603C32.7387 27.7012 32.9834 28.4424 32.9834 29.4841C32.9834 30.9866 32.5551 33.0901 31.5967 33.9716C31.0461 34.4524 30.3323 34.6728 29.2923 34.6728C27.8852 34.6528 26.111 34.3322 25.2341 33.7513ZM32.1473 37.0568L31.9637 38.4992L36.0627 39L38 23.4341L33.9011 22.9332L33.7175 24.4357H33.2281C32.6163 23.374 30.9849 21.9316 27.8852 21.9316C23.5823 21.9316 20.4011 25.0568 19.8301 29.3239C19.7689 29.7446 19.7485 30.1653 19.7485 30.586C19.7485 34.6728 22.5627 38.0184 26.9675 38.4992C27.2122 38.5192 27.4569 38.5392 27.7017 38.5192C29.537 38.5192 30.9237 37.7379 31.6375 37.0568H32.1473ZM13.6714 15L11 35.975L15.3437 36.4958L17.9743 15.5209L13.6714 15Z" fill="white"/>
<path d="M75.368 42.344H89.536V48H68.984V8.8H75.368V42.344ZM103.019 48.448C101.451 48.448 99.9393 48.1493 98.4833 47.552C97.0646 46.9173 95.7953 46.0213 94.6753 44.864C93.5926 43.7067 92.7153 42.3253 92.0433 40.72C91.3713 39.1147 91.0353 37.3227 91.0353 35.344C91.0353 33.3653 91.3526 31.5733 91.9873 29.968C92.6593 28.3627 93.5366 27 94.6193 25.88C95.702 24.7227 96.9713 23.8453 98.4273 23.248C99.8833 22.6133 101.414 22.296 103.019 22.296C105.035 22.296 106.79 22.688 108.283 23.472C109.814 24.256 110.953 25.2267 111.699 26.384V22.744H117.299V48H111.699V44.192C110.841 45.4613 109.646 46.488 108.115 47.272C106.622 48.056 104.923 48.448 103.019 48.448ZM104.363 43.184C105.409 43.184 106.361 42.9787 107.219 42.568C108.078 42.1573 108.806 41.616 109.403 40.944C110.038 40.2347 110.523 39.4133 110.859 38.48C111.195 37.5467 111.363 36.5387 111.363 35.456V35.008C111.363 33.9627 111.195 32.992 110.859 32.096C110.561 31.2 110.113 30.416 109.515 29.744C108.918 29.072 108.171 28.5493 107.275 28.176C106.417 27.7653 105.446 27.56 104.363 27.56C103.393 27.56 102.478 27.728 101.619 28.064C100.798 28.4 100.07 28.904 99.4353 29.576C98.8006 30.2107 98.2966 31.0133 97.9233 31.984C97.55 32.9547 97.3633 34.0747 97.3633 35.344C97.3633 37.7333 98.0166 39.6373 99.3233 41.056C100.63 42.4747 102.31 43.184 104.363 43.184ZM139.326 33.552C139.326 31.536 138.915 30.08 138.094 29.184C137.31 28.2507 136.227 27.784 134.846 27.784C133.091 27.784 131.747 28.456 130.814 29.8C129.918 31.144 129.451 32.936 129.414 35.176V48H123.478V22.744H129.078V27.224C129.825 25.768 130.87 24.592 132.214 23.696C133.595 22.8 135.126 22.352 136.806 22.352C138.486 22.352 139.961 22.8 141.23 23.696C142.537 24.592 143.507 25.7867 144.142 27.28C144.889 25.7867 145.971 24.592 147.39 23.696C148.846 22.8 150.47 22.352 152.262 22.352C153.494 22.352 154.633 22.576 155.678 23.024C156.761 23.4347 157.713 24.032 158.534 24.816C159.355 25.6 159.99 26.5707 160.438 27.728C160.923 28.848 161.166 30.0987 161.166 31.48V48H155.23V33.888C155.23 31.6853 154.745 30.1173 153.774 29.184C152.841 28.2507 151.702 27.784 150.358 27.784C148.715 27.784 147.483 28.3813 146.662 29.576C145.841 30.7707 145.393 32.432 145.318 34.56V48H139.326V33.552ZM178.634 48.448C176.692 48.448 174.9 48.1307 173.258 47.496C171.615 46.824 170.196 45.9093 169.002 44.752C167.807 43.5947 166.874 42.2133 166.202 40.608C165.53 38.9653 165.194 37.192 165.194 35.288C165.194 33.3467 165.53 31.592 166.202 30.024C166.874 28.4187 167.807 27.056 169.002 25.936C170.234 24.7787 171.671 23.8827 173.314 23.248C174.956 22.6133 176.73 22.296 178.634 22.296C180.575 22.296 182.367 22.6133 184.01 23.248C185.652 23.8827 187.071 24.7787 188.266 25.936C189.46 27.0933 190.375 28.4747 191.01 30.08C191.682 31.648 192.018 33.384 192.018 35.288C192.018 37.2293 191.682 39.0213 191.01 40.664C190.338 42.2693 189.386 43.6507 188.154 44.808C186.959 45.9653 185.54 46.8613 183.898 47.496C182.292 48.1307 180.538 48.448 178.634 48.448ZM178.634 43.296C180.874 43.296 182.628 42.5493 183.898 41.056C185.204 39.5627 185.858 37.64 185.858 35.288C185.858 32.9733 185.204 31.088 183.898 29.632C182.628 28.176 180.874 27.448 178.634 27.448C176.394 27.448 174.62 28.1947 173.314 29.688C172.044 31.144 171.41 33.0107 171.41 35.288C171.41 36.408 171.578 37.472 171.914 38.48C172.25 39.4507 172.716 40.2907 173.314 41C173.948 41.7093 174.714 42.2693 175.61 42.68C176.506 43.0907 177.514 43.296 178.634 43.296ZM206.792 48.448C205.224 48.448 203.712 48.1493 202.256 47.552C200.837 46.9173 199.568 46.0213 198.448 44.864C197.365 43.7067 196.488 42.3253 195.816 40.72C195.144 39.1147 194.808 37.3227 194.808 35.344C194.808 33.3653 195.125 31.5733 195.76 29.968C196.432 28.3627 197.309 27 198.392 25.88C199.475 24.7227 200.744 23.8453 202.2 23.248C203.656 22.6133 205.187 22.296 206.792 22.296C208.696 22.296 210.357 22.6507 211.776 23.36C213.195 24.032 214.315 24.8907 215.136 25.936V8.8H221.072V48H215.472V44.192C214.613 45.4613 213.419 46.488 211.888 47.272C210.395 48.056 208.696 48.448 206.792 48.448ZM208.136 43.184C209.181 43.184 210.133 42.9787 210.992 42.568C211.851 42.1573 212.579 41.616 213.176 40.944C213.811 40.2347 214.296 39.4133 214.632 38.48C214.968 37.5467 215.136 36.5387 215.136 35.456V35.008C215.136 33.9627 214.968 32.992 214.632 32.096C214.333 31.2 213.885 30.416 213.288 29.744C212.691 29.072 211.944 28.5493 211.048 28.176C210.189 27.7653 209.219 27.56 208.136 27.56C207.165 27.56 206.251 27.728 205.392 28.064C204.571 28.4 203.843 28.904 203.208 29.576C202.573 30.2107 202.069 31.0133 201.696 31.984C201.323 32.9547 201.136 34.0747 201.136 35.344C201.136 37.7333 201.789 39.6373 203.096 41.056C204.403 42.4747 206.083 43.184 208.136 43.184ZM237.555 48.448C235.987 48.448 234.475 48.1493 233.019 47.552C231.6 46.9173 230.331 46.0213 229.211 44.864C228.128 43.7067 227.251 42.3253 226.579 40.72C225.907 39.1147 225.571 37.3227 225.571 35.344C225.571 33.3653 225.888 31.5733 226.523 29.968C227.195 28.3627 228.072 27 229.155 25.88C230.238 24.7227 231.507 23.8453 232.963 23.248C234.419 22.6133 235.95 22.296 237.555 22.296C239.571 22.296 241.326 22.688 242.819 23.472C244.35 24.256 245.488 25.2267 246.235 26.384V22.744H251.835V48H246.235V44.192C245.376 45.4613 244.182 46.488 242.651 47.272C241.158 48.056 239.459 48.448 237.555 48.448ZM238.899 43.184C239.944 43.184 240.896 42.9787 241.755 42.568C242.614 42.1573 243.342 41.616 243.939 40.944C244.574 40.2347 245.059 39.4133 245.395 38.48C245.731 37.5467 245.899 36.5387 245.899 35.456V35.008C245.899 33.9627 245.731 32.992 245.395 32.096C245.096 31.2 244.648 30.416 244.051 29.744C243.454 29.072 242.707 28.5493 241.811 28.176C240.952 27.7653 239.982 27.56 238.899 27.56C237.928 27.56 237.014 27.728 236.155 28.064C235.334 28.4 234.606 28.904 233.971 29.576C233.336 30.2107 232.832 31.0133 232.459 31.984C232.086 32.9547 231.899 34.0747 231.899 35.344C231.899 37.7333 232.552 39.6373 233.859 41.056C235.166 42.4747 236.846 43.184 238.899 43.184Z" fill="#898989"/>
</svg>
