<svg width="433" height="62" viewBox="0 0 433 62" fill="none" xmlns="http://www.w3.org/2000/svg">
<path d="M0 28C0 14.7452 10.7452 4 24 4C37.2548 4 48 14.7452 48 28C48 41.2548 37.2548 52 24 52C10.7452 52 0 41.2548 0 28Z" fill="#FF462D"/>
<path d="M9.42553 33.85L5 34.1875L9.86808 20.4625L15.7319 20.0125L15.3447 28.1687L20.766 19.5625L27.183 19L22.3149 32.6687L17.9447 33.0625L20.766 24.7937L15.566 33.2875L11.9149 33.625L12.3574 25.4688L9.42553 33.85Z" fill="white"/>
<path d="M26.2426 36.6625L21.817 37L26.6851 23.275L32.5489 22.825L32.1617 30.9812L37.583 22.375L44 21.8125L39.1319 35.4812L34.7617 35.875L37.583 27.6062L32.383 36.1L28.7319 36.4375L29.1745 28.2812L26.2426 36.6625Z" fill="white"/>
<path d="M72.008 8.8H76.992L88.528 36.8L99.616 8.8H104.544L110.2 48H104.04L100.176 21.4L89.48 48.168H87.24L76.32 21.848L72.96 48H66.912L72.008 8.8ZM125.332 48.448C123.764 48.448 122.252 48.1493 120.796 47.552C119.377 46.9173 118.108 46.0213 116.988 44.864C115.905 43.7067 115.028 42.3253 114.356 40.72C113.684 39.1147 113.348 37.3227 113.348 35.344C113.348 33.3653 113.665 31.5733 114.3 29.968C114.972 28.3627 115.849 27 116.932 25.88C118.014 24.7227 119.284 23.8453 120.74 23.248C122.196 22.6133 123.726 22.296 125.332 22.296C127.348 22.296 129.102 22.688 130.596 23.472C132.126 24.256 133.265 25.2267 134.012 26.384V22.744H139.612V48H134.012V44.192C133.153 45.4613 131.958 46.488 130.428 47.272C128.934 48.056 127.236 48.448 125.332 48.448ZM126.676 43.184C127.721 43.184 128.673 42.9787 129.532 42.568C130.39 42.1573 131.118 41.616 131.716 40.944C132.35 40.2347 132.836 39.4133 133.172 38.48C133.508 37.5467 133.676 36.5387 133.676 35.456V35.008C133.676 33.9627 133.508 32.992 133.172 32.096C132.873 31.2 132.425 30.416 131.828 29.744C131.23 29.072 130.484 28.5493 129.588 28.176C128.729 27.7653 127.758 27.56 126.676 27.56C125.705 27.56 124.79 27.728 123.932 28.064C123.11 28.4 122.382 28.904 121.748 29.576C121.113 30.2107 120.609 31.0133 120.236 31.984C119.862 32.9547 119.676 34.0747 119.676 35.344C119.676 37.7333 120.329 39.6373 121.636 41.056C122.942 42.4747 124.622 43.184 126.676 43.184ZM145.791 22.744H162.927V28.008H151.727V48H145.791V22.744ZM184.399 37.472H172.919V48H166.983V22.744H172.919V32.208H184.399V22.744H190.391V48H184.399V37.472ZM196.488 22.744H202.424V38.368L215.304 22.744H219.672V48H213.736V31.76L200.352 48H196.488V22.744ZM231.485 28.008H223.309V22.744H245.653V28.008H237.477V48H231.485V28.008ZM265.153 22.744H269.969L277.249 38.48L284.193 22.744H289.065L293.377 48H287.777L285.201 32.32L278.089 48H275.793L268.737 32.6L266.217 48H260.841L265.153 22.744ZM307.421 48.448C305.853 48.448 304.341 48.1493 302.885 47.552C301.467 46.9173 300.197 46.0213 299.077 44.864C297.995 43.7067 297.117 42.3253 296.445 40.72C295.773 39.1147 295.437 37.3227 295.437 35.344C295.437 33.3653 295.755 31.5733 296.389 29.968C297.061 28.3627 297.939 27 299.021 25.88C300.104 24.7227 301.373 23.8453 302.829 23.248C304.285 22.6133 305.816 22.296 307.421 22.296C309.437 22.296 311.192 22.688 312.685 23.472C314.216 24.256 315.355 25.2267 316.101 26.384V22.744H321.701V48H316.101V44.192C315.243 45.4613 314.048 46.488 312.517 47.272C311.024 48.056 309.325 48.448 307.421 48.448ZM308.765 43.184C309.811 43.184 310.763 42.9787 311.621 42.568C312.48 42.1573 313.208 41.616 313.805 40.944C314.44 40.2347 314.925 39.4133 315.261 38.48C315.597 37.5467 315.765 36.5387 315.765 35.456V35.008C315.765 33.9627 315.597 32.992 315.261 32.096C314.963 31.2 314.515 30.416 313.917 29.744C313.32 29.072 312.573 28.5493 311.677 28.176C310.819 27.7653 309.848 27.56 308.765 27.56C307.795 27.56 306.88 27.728 306.021 28.064C305.2 28.4 304.472 28.904 303.837 29.576C303.203 30.2107 302.699 31.0133 302.325 31.984C301.952 32.9547 301.765 34.0747 301.765 35.344C301.765 37.7333 302.419 39.6373 303.725 41.056C305.032 42.4747 306.712 43.184 308.765 43.184ZM327.88 61.44V22.744H333.48V26.384C334.227 25.2267 335.347 24.256 336.84 23.472C338.371 22.688 340.144 22.296 342.16 22.296C343.766 22.296 345.296 22.6133 346.752 23.248C348.208 23.8453 349.478 24.7227 350.56 25.88C351.643 27 352.502 28.3627 353.136 29.968C353.808 31.5733 354.144 33.3653 354.144 35.344C354.144 37.3227 353.808 39.1147 353.136 40.72C352.464 42.3253 351.568 43.7067 350.448 44.864C349.366 46.0213 348.096 46.9173 346.64 47.552C345.222 48.1493 343.728 48.448 342.16 48.448C340.368 48.448 338.744 48.112 337.288 47.44C335.87 46.7307 334.712 45.7973 333.816 44.64V61.44H327.88ZM340.816 27.56C338.688 27.56 337.008 28.2507 335.776 29.632C334.544 31.0133 333.891 32.712 333.816 34.728V35.456C333.816 36.5387 333.984 37.5467 334.32 38.48C334.656 39.4133 335.123 40.2347 335.72 40.944C336.355 41.616 337.083 42.1573 337.904 42.568C338.763 42.9787 339.734 43.184 340.816 43.184C342.87 43.184 344.55 42.4747 345.856 41.056C347.163 39.6373 347.816 37.7333 347.816 35.344C347.816 34.0747 347.63 32.9547 347.256 31.984C346.883 31.0133 346.379 30.2107 345.744 29.576C345.11 28.904 344.363 28.4 343.504 28.064C342.683 27.728 341.787 27.56 340.816 27.56ZM358.643 22.744H364.579V32.264H367.323L374.155 22.744H380.427V23.528L372.195 34.28L382.387 47.16V48H375.723L367.099 36.912H364.579V48H358.643V22.744ZM395.809 48.448C393.831 48.448 392.001 48.1493 390.321 47.552C388.679 46.9173 387.26 46.04 386.065 44.92C384.871 43.7627 383.937 42.4 383.265 40.832C382.593 39.2267 382.257 37.4347 382.257 35.456C382.257 33.4027 382.612 31.5733 383.321 29.968C384.031 28.3253 384.983 26.944 386.177 25.824C387.372 24.6667 388.772 23.7893 390.377 23.192C392.02 22.5947 393.737 22.296 395.529 22.296C397.508 22.296 399.263 22.6507 400.793 23.36C402.361 24.032 403.668 24.9653 404.713 26.16C405.796 27.3547 406.617 28.736 407.177 30.304C407.737 31.872 408.017 33.5147 408.017 35.232V36.688H388.137C388.436 38.8907 389.313 40.5893 390.769 41.784C392.225 42.9413 394.055 43.52 396.257 43.52C397.788 43.52 399.188 43.24 400.457 42.68C401.764 42.12 402.847 41.336 403.705 40.328L407.177 43.464C405.871 45.1067 404.228 46.3573 402.249 47.216C400.308 48.0373 398.161 48.448 395.809 48.448ZM395.193 27.224C393.439 27.224 391.945 27.7093 390.713 28.68C389.481 29.6507 388.66 31.0133 388.249 32.768H402.137C401.839 31.2 401.073 29.8933 399.841 28.848C398.647 27.7653 397.097 27.224 395.193 27.224ZM417.348 28.008H409.172V22.744H431.516V28.008H423.34V48H417.348V28.008Z" fill="#898989"/>
</svg>
