<svg width="503" height="62" viewBox="0 0 503 62" fill="none" xmlns="http://www.w3.org/2000/svg">
<path d="M0 28C0 14.7452 10.7452 4 24 4C37.2548 4 48 14.7452 48 28C48 41.2548 37.2548 52 24 52C10.7452 52 0 41.2548 0 28Z" fill="#8654CC"/>
<path d="M19.3474 26.1906H21.2343V20.9683H23.7264V19.1702H19.3474V26.1906ZM15.4494 24.6257C15.2434 24.6352 15.0378 24.6005 14.8455 24.5239C14.6533 24.4473 14.4787 24.3304 14.3328 24.1806C14.187 24.0308 14.0731 23.8515 13.9983 23.654C13.9236 23.4566 13.8897 23.2453 13.8988 23.0336H18.5517C18.5517 23.0336 18.5826 22.6727 18.5826 22.3017C18.5826 20.1785 17.3567 19.0108 15.4444 19.0108C13.4234 19.0108 12.0169 20.5235 12.0169 22.6835C12.0169 24.843 13.4024 26.3982 15.424 26.3982C17.3004 26.3982 18.5616 25.289 18.5981 23.6492H16.7526C16.697 23.9517 16.5313 24.2211 16.2892 24.4024C16.047 24.5838 15.7467 24.6634 15.4494 24.6251V24.6257ZM15.4494 20.6244C15.6048 20.6023 15.7629 20.6124 15.9144 20.654C16.0659 20.6957 16.2077 20.7681 16.3316 20.867C16.4554 20.9659 16.5587 21.0892 16.6354 21.2298C16.7121 21.3704 16.7606 21.5253 16.778 21.6855H14.0021C14.0956 21.3651 14.2912 21.0863 14.5575 20.8938C14.8238 20.7014 15.1453 20.6065 15.4704 20.6244H15.4494ZM8.72855 19.1697L7.43088 23.4733L6.16412 19.1697H4.08618L3 26.1906H4.73171L5.38828 21.8228L6.66497 26.1906H8.14874L9.47237 21.7433L10.103 26.1906H11.8606L10.7756 19.1697H8.72855ZM27.1843 19C25.1732 19 24.0312 20.0134 24.0826 21.7382H26.0368C26.0368 21.0063 26.409 20.6772 27.1892 20.6772C27.7481 20.6772 28.0993 20.9155 28.0993 21.2764C28.0993 21.5102 28.0115 21.5998 27.6702 21.7014L26.1191 22.1417C24.6099 22.561 23.9379 23.2027 23.9379 24.2643C23.9379 25.5222 24.8269 26.3602 26.1351 26.3602C26.5523 26.4029 26.9719 26.3089 27.334 26.0916C27.696 25.8743 27.9819 25.5449 28.1506 25.1505V26.2116H29.9552V21.5266C29.9293 19.8329 28.8851 19 27.1843 19ZM26.5128 24.7261C26.0324 24.7261 25.7994 24.4873 25.7994 24.1372C25.7994 23.7865 25.965 23.6061 26.4819 23.4416L28.1153 22.9695V23.0966C28.1232 23.4233 28.0329 23.7446 27.8567 24.0167C27.6805 24.2888 27.427 24.4984 27.1307 24.6172C26.9341 24.6966 26.7237 24.7329 26.5128 24.7261ZM39.2041 28.0641V29.8571H41.1589V35.0845H43.0452V29.8576H45V28.0641H39.2041ZM30.334 28.0641L28.8652 30.6696H28.1158V28.0641H26.229V35.0845H28.1158V32.3945H28.8558L30.4323 35.0845H32.5622L30.4787 31.5025L32.412 28.0641H30.334ZM15.5687 27.8945C13.5576 27.8945 12.4101 28.9078 12.467 30.6327H14.4212C14.4212 29.9008 14.7934 29.5717 15.5737 29.5717C16.1325 29.5717 16.4837 29.8157 16.4837 30.1765C16.4837 30.4046 16.3953 30.4943 16.0497 30.5953L14.4985 31.0361C12.9943 31.4605 12.3223 32.0971 12.3223 33.1582C12.3223 34.411 13.2113 35.2547 14.5195 35.2547C14.9372 35.301 15.3584 35.2077 15.7205 34.9888C16.0826 34.7699 16.3665 34.437 16.5301 34.0393V35.1004H18.3396V30.3989C18.3137 28.7274 17.2695 27.8945 15.5687 27.8945ZM14.8862 33.62C14.4157 33.62 14.1782 33.3817 14.1782 33.026C14.1782 32.6702 14.3483 32.4955 14.8657 32.3468L16.4942 31.8742V31.991C16.4994 32.2084 16.4612 32.4246 16.3819 32.6262C16.3027 32.8278 16.184 33.0105 16.0334 33.1632C15.8827 33.3159 15.7031 33.4351 15.5058 33.5137C15.3085 33.5923 15.0976 33.6285 14.8862 33.62ZM22.9246 27.8939C22.5306 27.8687 22.1391 27.9735 21.8072 28.1929C21.4752 28.4123 21.2201 28.735 21.0791 29.1138V28.0528H19.1922V37H21.0791V34.0496C21.2246 34.4233 21.4816 34.7401 21.8131 34.9546C22.1446 35.169 22.5337 35.2701 22.9246 35.2433C24.4763 35.2433 25.5094 34.0019 25.5094 31.5712C25.5094 29.1405 24.4912 27.8939 22.9251 27.8939H22.9246ZM22.4077 33.4498C21.5446 33.4498 21.0272 32.845 21.0272 31.5712C21.0272 30.2974 21.5446 29.6874 22.3972 29.6874C23.2504 29.6874 23.6745 30.2974 23.6745 31.5712C23.6745 32.845 23.2404 33.4493 22.3972 33.4493H22.4083L22.4077 33.4498ZM8.72855 28.0641L7.43088 32.3621L6.16412 28.0641H4.08618L3 35.0845H4.73171L5.38828 30.7172L6.66497 35.0845H8.14874L9.47237 30.6378L10.103 35.0845H11.8606L10.775 28.0641H8.72855Z" fill="#FCE5BD"/>
<path d="M35.6264 33.519C35.4205 33.5278 35.2152 33.4927 35.0232 33.4158C34.8313 33.3389 34.657 33.222 34.5113 33.0724C34.3655 32.9228 34.2516 32.7437 34.1767 32.5466C34.1017 32.3494 34.0673 32.1384 34.0758 31.9269H38.7286C38.7286 31.9269 38.7596 31.5661 38.7596 31.195C38.7596 29.0718 37.5392 27.9041 35.6214 27.9041C33.6003 27.9041 32.1939 29.4168 32.1939 31.5712C32.1939 33.7256 33.5793 35.2859 35.601 35.2859C37.4773 35.2859 38.7386 34.1715 38.78 32.5369H36.9296C36.8752 32.8404 36.71 33.1112 36.4677 33.2937C36.2254 33.4761 35.9244 33.5566 35.6264 33.5185V33.519ZM35.6264 29.5178C35.7819 29.4964 35.94 29.507 36.0916 29.5489C36.2431 29.5908 36.3851 29.6632 36.5092 29.7619C36.6333 29.8606 36.7371 29.9836 36.8145 30.1238C36.892 30.2641 36.9416 30.4187 36.9605 30.5788H34.179C34.2717 30.2579 34.4671 29.9785 34.7336 29.7859C35.0001 29.5933 35.3221 29.4988 35.6473 29.5178H35.6264Z" fill="#FCE5BD"/>
<path d="M87.408 48.504C84.2347 48.504 81.3413 48.0187 78.728 47.048C76.152 46.04 73.9493 44.6587 72.12 42.904C70.2907 41.112 68.872 38.984 67.864 36.52C66.856 34.056 66.352 31.368 66.352 28.456C66.352 25.544 66.856 22.856 67.864 20.392C68.872 17.928 70.2907 15.8 72.12 14.008C73.9493 12.1787 76.152 10.76 78.728 9.752C81.304 8.744 84.16 8.24 87.296 8.24C89.9093 8.24 92.2613 8.576 94.352 9.248C96.4427 9.92 98.3093 10.8533 99.952 12.048L97.264 16.864C95.8827 15.8933 94.3707 15.184 92.728 14.736C91.1227 14.2507 89.4613 14.008 87.744 14.008C85.616 14.008 83.656 14.3627 81.864 15.072C80.072 15.7813 78.504 16.7707 77.16 18.04C75.8533 19.3093 74.8267 20.8213 74.08 22.576C73.3707 24.3307 73.016 26.2533 73.016 28.344C73.016 30.472 73.3707 32.4133 74.08 34.168C74.8267 35.9227 75.872 37.4347 77.216 38.704C78.56 39.9733 80.1467 40.9627 81.976 41.672C83.8427 42.344 85.896 42.68 88.136 42.68C89.816 42.68 91.5147 42.456 93.232 42.008C94.9493 41.5227 96.5173 40.6453 97.936 39.376L100.792 44.136C99.4107 45.3307 97.6 46.3573 95.36 47.216C93.12 48.0747 90.4693 48.504 87.408 48.504ZM116.133 48.504C111.205 48.504 107.658 46.936 105.493 43.8C103.365 40.664 102.301 36.0347 102.301 29.912C102.301 26.216 102.674 23.0987 103.421 20.56C104.205 17.984 105.288 15.8933 106.669 14.288C108.088 12.6827 109.768 11.5253 111.709 10.816C113.688 10.1067 115.853 9.752 118.205 9.752C119.624 9.752 120.706 9.62133 121.453 9.36C122.237 9.06133 122.853 8.48267 123.301 7.624L128.005 9.472C127.706 10.4427 127.333 11.2827 126.885 11.992C126.474 12.664 125.896 13.224 125.149 13.672C124.402 14.0827 123.488 14.4187 122.405 14.68C121.322 14.904 119.997 15.0533 118.429 15.128C116.674 15.2027 115.162 15.408 113.893 15.744C112.624 16.08 111.541 16.696 110.645 17.592C109.786 18.488 109.096 19.7573 108.573 21.4C108.088 23.0053 107.77 25.1147 107.621 27.728C108.704 25.7867 110.048 24.4053 111.653 23.584C113.296 22.7627 115.125 22.352 117.141 22.352C119.045 22.352 120.744 22.6693 122.237 23.304C123.73 23.9387 125 24.816 126.045 25.936C127.09 27.056 127.893 28.4 128.453 29.968C129.013 31.4987 129.293 33.1973 129.293 35.064C129.293 37.1547 128.957 39.0213 128.285 40.664C127.613 42.3067 126.68 43.7253 125.485 44.92C124.328 46.0773 122.946 46.9733 121.341 47.608C119.736 48.2053 118 48.504 116.133 48.504ZM116.021 43.184C118.149 43.184 119.848 42.4933 121.117 41.112C122.386 39.7307 123.021 37.808 123.021 35.344C123.021 32.992 122.405 31.1067 121.173 29.688C119.978 28.232 118.261 27.504 116.021 27.504C113.818 27.504 112.101 28.1947 110.869 29.576C109.637 30.9573 109.021 32.8613 109.021 35.288C109.021 37.752 109.656 39.6933 110.925 41.112C112.194 42.4933 113.893 43.184 116.021 43.184ZM145.631 48.448C143.653 48.448 141.823 48.1493 140.143 47.552C138.501 46.9173 137.082 46.04 135.887 44.92C134.693 43.7627 133.759 42.4 133.087 40.832C132.415 39.2267 132.079 37.4347 132.079 35.456C132.079 33.4027 132.434 31.5733 133.143 29.968C133.853 28.3253 134.805 26.944 135.999 25.824C137.194 24.6667 138.594 23.7893 140.199 23.192C141.842 22.5947 143.559 22.296 145.351 22.296C147.33 22.296 149.085 22.6507 150.615 23.36C152.183 24.032 153.49 24.9653 154.535 26.16C155.618 27.3547 156.439 28.736 156.999 30.304C157.559 31.872 157.839 33.5147 157.839 35.232V36.688H137.959C138.258 38.8907 139.135 40.5893 140.591 41.784C142.047 42.9413 143.877 43.52 146.079 43.52C147.61 43.52 149.01 43.24 150.279 42.68C151.586 42.12 152.669 41.336 153.527 40.328L156.999 43.464C155.693 45.1067 154.05 46.3573 152.071 47.216C150.13 48.0373 147.983 48.448 145.631 48.448ZM145.015 27.224C143.261 27.224 141.767 27.7093 140.535 28.68C139.303 29.6507 138.482 31.0133 138.071 32.768H151.959C151.661 31.2 150.895 29.8933 149.663 28.848C148.469 27.7653 146.919 27.224 145.015 27.224ZM162.335 61.44V22.744H167.935V26.384C168.681 25.2267 169.801 24.256 171.295 23.472C172.825 22.688 174.599 22.296 176.615 22.296C178.22 22.296 179.751 22.6133 181.207 23.248C182.663 23.8453 183.932 24.7227 185.015 25.88C186.097 27 186.956 28.3627 187.591 29.968C188.263 31.5733 188.599 33.3653 188.599 35.344C188.599 37.3227 188.263 39.1147 187.591 40.72C186.919 42.3253 186.023 43.7067 184.903 44.864C183.82 46.0213 182.551 46.9173 181.095 47.552C179.676 48.1493 178.183 48.448 176.615 48.448C174.823 48.448 173.199 48.112 171.743 47.44C170.324 46.7307 169.167 45.7973 168.271 44.64V61.44H162.335ZM175.271 27.56C173.143 27.56 171.463 28.2507 170.231 29.632C168.999 31.0133 168.345 32.712 168.271 34.728V35.456C168.271 36.5387 168.439 37.5467 168.775 38.48C169.111 39.4133 169.577 40.2347 170.175 40.944C170.809 41.616 171.537 42.1573 172.359 42.568C173.217 42.9787 174.188 43.184 175.271 43.184C177.324 43.184 179.004 42.4747 180.311 41.056C181.617 39.6373 182.271 37.7333 182.271 35.344C182.271 34.0747 182.084 32.9547 181.711 31.984C181.337 31.0133 180.833 30.2107 180.199 29.576C179.564 28.904 178.817 28.4 177.959 28.064C177.137 27.728 176.241 27.56 175.271 27.56ZM196.864 8.8H201.848L213.384 36.8L224.472 8.8H229.4L235.056 48H228.896L225.032 21.4L214.336 48.168H212.096L201.176 21.848L197.816 48H191.768L196.864 8.8ZM251.756 48.448C249.777 48.448 247.948 48.1493 246.268 47.552C244.625 46.9173 243.206 46.04 242.012 44.92C240.817 43.7627 239.884 42.4 239.212 40.832C238.54 39.2267 238.204 37.4347 238.204 35.456C238.204 33.4027 238.558 31.5733 239.268 29.968C239.977 28.3253 240.929 26.944 242.124 25.824C243.318 24.6667 244.718 23.7893 246.324 23.192C247.966 22.5947 249.684 22.296 251.476 22.296C253.454 22.296 255.209 22.6507 256.74 23.36C258.308 24.032 259.614 24.9653 260.66 26.16C261.742 27.3547 262.564 28.736 263.124 30.304C263.684 31.872 263.964 33.5147 263.964 35.232V36.688H244.084C244.382 38.8907 245.26 40.5893 246.716 41.784C248.172 42.9413 250.001 43.52 252.204 43.52C253.734 43.52 255.134 43.24 256.404 42.68C257.71 42.12 258.793 41.336 259.652 40.328L263.124 43.464C261.817 45.1067 260.174 46.3573 258.196 47.216C256.254 48.0373 254.108 48.448 251.756 48.448ZM251.14 27.224C249.385 27.224 247.892 27.7093 246.66 28.68C245.428 29.6507 244.606 31.0133 244.196 32.768H258.084C257.785 31.2 257.02 29.8933 255.788 28.848C254.593 27.7653 253.044 27.224 251.14 27.224ZM268.459 22.744H285.595V28.008H274.395V48H268.459V22.744ZM298.862 48.448C297.294 48.448 295.782 48.1493 294.326 47.552C292.907 46.9173 291.638 46.0213 290.518 44.864C289.435 43.7067 288.558 42.3253 287.886 40.72C287.214 39.1147 286.878 37.3227 286.878 35.344C286.878 33.3653 287.195 31.5733 287.83 29.968C288.502 28.3627 289.379 27 290.462 25.88C291.544 24.7227 292.814 23.8453 294.27 23.248C295.726 22.6133 297.256 22.296 298.862 22.296C300.878 22.296 302.632 22.688 304.126 23.472C305.656 24.256 306.795 25.2267 307.542 26.384V22.744H313.142V48H307.542V44.192C306.683 45.4613 305.488 46.488 303.958 47.272C302.464 48.056 300.766 48.448 298.862 48.448ZM300.206 43.184C301.251 43.184 302.203 42.9787 303.062 42.568C303.92 42.1573 304.648 41.616 305.246 40.944C305.88 40.2347 306.366 39.4133 306.702 38.48C307.038 37.5467 307.206 36.5387 307.206 35.456V35.008C307.206 33.9627 307.038 32.992 306.702 32.096C306.403 31.2 305.955 30.416 305.358 29.744C304.76 29.072 304.014 28.5493 303.118 28.176C302.259 27.7653 301.288 27.56 300.206 27.56C299.235 27.56 298.32 27.728 297.462 28.064C296.64 28.4 295.912 28.904 295.278 29.576C294.643 30.2107 294.139 31.0133 293.766 31.984C293.392 32.9547 293.206 34.0747 293.206 35.344C293.206 37.7333 293.859 39.6373 295.166 41.056C296.472 42.4747 298.152 43.184 300.206 43.184ZM323.689 8.8H328.673L340.209 36.8L351.297 8.8H356.225L361.881 48H355.721L351.857 21.4L341.161 48.168H338.921L328.001 21.848L324.641 48H318.593L323.689 8.8ZM377.012 48.448C375.444 48.448 373.932 48.1493 372.476 47.552C371.058 46.9173 369.788 46.0213 368.668 44.864C367.586 43.7067 366.708 42.3253 366.036 40.72C365.364 39.1147 365.028 37.3227 365.028 35.344C365.028 33.3653 365.346 31.5733 365.98 29.968C366.652 28.3627 367.53 27 368.612 25.88C369.695 24.7227 370.964 23.8453 372.42 23.248C373.876 22.6133 375.407 22.296 377.012 22.296C379.028 22.296 380.783 22.688 382.276 23.472C383.807 24.256 384.946 25.2267 385.692 26.384V22.744H391.292V48H385.692V44.192C384.834 45.4613 383.639 46.488 382.108 47.272C380.615 48.056 378.916 48.448 377.012 48.448ZM378.356 43.184C379.402 43.184 380.354 42.9787 381.212 42.568C382.071 42.1573 382.799 41.616 383.396 40.944C384.031 40.2347 384.516 39.4133 384.852 38.48C385.188 37.5467 385.356 36.5387 385.356 35.456V35.008C385.356 33.9627 385.188 32.992 384.852 32.096C384.554 31.2 384.106 30.416 383.508 29.744C382.911 29.072 382.164 28.5493 381.268 28.176C380.41 27.7653 379.439 27.56 378.356 27.56C377.386 27.56 376.471 27.728 375.612 28.064C374.791 28.4 374.063 28.904 373.428 29.576C372.794 30.2107 372.29 31.0133 371.916 31.984C371.543 32.9547 371.356 34.0747 371.356 35.344C371.356 37.7333 372.01 39.6373 373.316 41.056C374.623 42.4747 376.303 43.184 378.356 43.184ZM397.471 61.44V22.744H403.071V26.384C403.818 25.2267 404.938 24.256 406.431 23.472C407.962 22.688 409.735 22.296 411.751 22.296C413.357 22.296 414.887 22.6133 416.343 23.248C417.799 23.8453 419.069 24.7227 420.151 25.88C421.234 27 422.093 28.3627 422.727 29.968C423.399 31.5733 423.735 33.3653 423.735 35.344C423.735 37.3227 423.399 39.1147 422.727 40.72C422.055 42.3253 421.159 43.7067 420.039 44.864C418.957 46.0213 417.687 46.9173 416.231 47.552C414.813 48.1493 413.319 48.448 411.751 48.448C409.959 48.448 408.335 48.112 406.879 47.44C405.461 46.7307 404.303 45.7973 403.407 44.64V61.44H397.471ZM410.407 27.56C408.279 27.56 406.599 28.2507 405.367 29.632C404.135 31.0133 403.482 32.712 403.407 34.728V35.456C403.407 36.5387 403.575 37.5467 403.911 38.48C404.247 39.4133 404.714 40.2347 405.311 40.944C405.946 41.616 406.674 42.1573 407.495 42.568C408.354 42.9787 409.325 43.184 410.407 43.184C412.461 43.184 414.141 42.4747 415.447 41.056C416.754 39.6373 417.407 37.7333 417.407 35.344C417.407 34.0747 417.221 32.9547 416.847 31.984C416.474 31.0133 415.97 30.2107 415.335 29.576C414.701 28.904 413.954 28.4 413.095 28.064C412.274 27.728 411.378 27.56 410.407 27.56ZM428.234 22.744H434.17V32.264H436.914L443.746 22.744H450.018V23.528L441.786 34.28L451.978 47.16V48H445.314L436.69 36.912H434.17V48H428.234V22.744ZM465.4 48.448C463.421 48.448 461.592 48.1493 459.912 47.552C458.269 46.9173 456.851 46.04 455.656 44.92C454.461 43.7627 453.528 42.4 452.856 40.832C452.184 39.2267 451.848 37.4347 451.848 35.456C451.848 33.4027 452.203 31.5733 452.912 29.968C453.621 28.3253 454.573 26.944 455.768 25.824C456.963 24.6667 458.363 23.7893 459.968 23.192C461.611 22.5947 463.328 22.296 465.12 22.296C467.099 22.296 468.853 22.6507 470.384 23.36C471.952 24.032 473.259 24.9653 474.304 26.16C475.387 27.3547 476.208 28.736 476.768 30.304C477.328 31.872 477.608 33.5147 477.608 35.232V36.688H457.728C458.027 38.8907 458.904 40.5893 460.36 41.784C461.816 42.9413 463.645 43.52 465.848 43.52C467.379 43.52 468.779 43.24 470.048 42.68C471.355 42.12 472.437 41.336 473.296 40.328L476.768 43.464C475.461 45.1067 473.819 46.3573 471.84 47.216C469.899 48.0373 467.752 48.448 465.4 48.448ZM464.784 27.224C463.029 27.224 461.536 27.7093 460.304 28.68C459.072 29.6507 458.251 31.0133 457.84 32.768H471.728C471.429 31.2 470.664 29.8933 469.432 28.848C468.237 27.7653 466.688 27.224 464.784 27.224ZM486.939 28.008H478.763V22.744H501.107V28.008H492.931V48H486.939V28.008Z" fill="#898989"/>
</svg>
