<svg width="433" height="61" viewBox="0 0 433 61" fill="none" xmlns="http://www.w3.org/2000/svg">
<g clip-path="url(#clip0_786_4051)">
<path d="M0 27C0 13.7452 10.7452 3 24 3C37.2548 3 48 13.7452 48 27C48 40.2548 37.2548 51 24 51C10.7452 51 0 40.2548 0 27Z" fill="#FDFD00"/>
<path d="M19.8042 6L0 36.3333V48H4.02797L20.1399 23.3333L16.4476 37.6667L24.8392 39.3333L32.8951 29.3333L30.2098 40.6667L48 37.3333V30L39.2727 32L41.958 20.3333L34.5734 16L26.1818 26.3333L29.8741 12.6667L19.8042 6Z" fill="#050200"/>
</g>
<path d="M64.896 45.88L74.36 30.368C72.344 29.3973 70.776 28.016 69.656 26.224C68.536 24.3947 67.976 22.248 67.976 19.784C67.976 18.0293 68.2747 16.424 68.872 14.968C69.5067 13.4747 70.4027 12.2053 71.56 11.16C72.7173 10.0773 74.0987 9.256 75.704 8.696C77.3467 8.09866 79.176 7.8 81.192 7.8H92.56V47H86.176V31.712H80.8H80.688L71.672 47H64.896V45.88ZM86.176 26.112V13.4H81.696C79.344 13.4 77.552 14.016 76.32 15.248C75.1253 16.48 74.528 17.992 74.528 19.784C74.528 21.576 75.1253 23.088 76.32 24.32C77.552 25.5147 79.3813 26.112 81.808 26.112H86.176ZM116.967 36.472H105.487V47H99.5512V21.744H105.487V31.208H116.967V21.744H122.959V47H116.967V36.472ZM125.808 41.736H128.776C129.747 39.7947 130.494 37.592 131.016 35.128C131.539 32.6267 131.8 29.64 131.8 26.168V21.744H150.84V41.736H154.984V52.88H149.944V47H130.792V52.88H125.808V41.736ZM137.232 28.24C137.232 30.9653 137.027 33.4293 136.616 35.632C136.206 37.8347 135.608 39.8693 134.824 41.736H144.848V27.008H137.232V28.24ZM169.558 47.448C167.58 47.448 165.75 47.1493 164.07 46.552C162.428 45.9173 161.009 45.04 159.814 43.92C158.62 42.7627 157.686 41.4 157.014 39.832C156.342 38.2267 156.006 36.4347 156.006 34.456C156.006 32.4027 156.361 30.5733 157.07 28.968C157.78 27.3253 158.732 25.944 159.926 24.824C161.121 23.6667 162.521 22.7893 164.126 22.192C165.769 21.5947 167.486 21.296 169.278 21.296C171.257 21.296 173.012 21.6507 174.542 22.36C176.11 23.032 177.417 23.9653 178.462 25.16C179.545 26.3547 180.366 27.736 180.926 29.304C181.486 30.872 181.766 32.5147 181.766 34.232V35.688H161.886C162.185 37.8907 163.062 39.5893 164.518 40.784C165.974 41.9413 167.804 42.52 170.006 42.52C171.537 42.52 172.937 42.24 174.206 41.68C175.513 41.12 176.596 40.336 177.454 39.328L180.926 42.464C179.62 44.1067 177.977 45.3573 175.998 46.216C174.057 47.0373 171.91 47.448 169.558 47.448ZM168.942 26.224C167.188 26.224 165.694 26.7093 164.462 27.68C163.23 28.6507 162.409 30.0133 161.998 31.768H175.886C175.588 30.2 174.822 28.8933 173.59 27.848C172.396 26.7653 170.846 26.224 168.942 26.224ZM186.262 21.744H192.198V31.264H194.942L201.774 21.744H208.046V22.528L199.814 33.28L210.006 46.16V47H203.342L194.718 35.912H192.198V47H186.262V21.744ZM223.092 47.448C221.076 47.448 219.246 47.1307 217.604 46.496C215.998 45.824 214.617 44.9093 213.46 43.752C212.302 42.5947 211.406 41.2133 210.772 39.608C210.174 38.0027 209.876 36.248 209.876 34.344C209.876 32.2907 210.212 30.4613 210.884 28.856C211.556 27.2507 212.489 25.888 213.684 24.768C214.878 23.648 216.278 22.7893 217.884 22.192C219.489 21.5947 221.225 21.296 223.092 21.296C225.182 21.296 227.086 21.6507 228.804 22.36C230.521 23.032 231.921 23.9467 233.004 25.104L229.812 29.304C229.065 28.4453 228.15 27.7547 227.068 27.232C225.985 26.7093 224.79 26.448 223.484 26.448C221.318 26.448 219.545 27.1573 218.164 28.576C216.782 29.9947 216.092 31.88 216.092 34.232C216.092 35.4267 216.278 36.5093 216.652 37.48C217.025 38.4507 217.548 39.3093 218.22 40.056C218.892 40.7653 219.694 41.3253 220.628 41.736C221.561 42.1093 222.588 42.296 223.708 42.296C225.052 42.296 226.246 42.0347 227.292 41.512C228.337 40.952 229.233 40.2427 229.98 39.384L233.508 42.912C232.425 44.3307 230.988 45.4507 229.196 46.272C227.404 47.056 225.369 47.448 223.092 47.448ZM240.482 47.56C239.287 47.56 238.354 47.2053 237.682 46.496C237.047 45.7867 236.73 44.928 236.73 43.92C236.73 42.8747 237.047 41.9973 237.682 41.288C238.316 40.5787 239.25 40.224 240.482 40.224C241.676 40.224 242.61 40.5787 243.282 41.288C243.954 41.9973 244.29 42.8747 244.29 43.92C244.29 44.928 243.954 45.7867 243.282 46.496C242.61 47.2053 241.676 47.56 240.482 47.56ZM254.371 7.8H259.355L270.891 35.8L281.979 7.8H286.907L292.563 47H286.403L282.539 20.4L271.843 47.168H269.603L258.683 20.848L255.323 47H249.275L254.371 7.8ZM307.695 47.448C306.127 47.448 304.615 47.1493 303.159 46.552C301.74 45.9173 300.471 45.0213 299.351 43.864C298.268 42.7067 297.391 41.3253 296.719 39.72C296.047 38.1147 295.711 36.3227 295.711 34.344C295.711 32.3653 296.028 30.5733 296.663 28.968C297.335 27.3627 298.212 26 299.295 24.88C300.378 23.7227 301.647 22.8453 303.103 22.248C304.559 21.6133 306.09 21.296 307.695 21.296C309.711 21.296 311.466 21.688 312.959 22.472C314.49 23.256 315.628 24.2267 316.375 25.384V21.744H321.975V47H316.375V43.192C315.516 44.4613 314.322 45.488 312.791 46.272C311.298 47.056 309.599 47.448 307.695 47.448ZM309.039 42.184C310.084 42.184 311.036 41.9787 311.895 41.568C312.754 41.1573 313.482 40.616 314.079 39.944C314.714 39.2347 315.199 38.4133 315.535 37.48C315.871 36.5467 316.039 35.5387 316.039 34.456V34.008C316.039 32.9627 315.871 31.992 315.535 31.096C315.236 30.2 314.788 29.416 314.191 28.744C313.594 28.072 312.847 27.5493 311.951 27.176C311.092 26.7653 310.122 26.56 309.039 26.56C308.068 26.56 307.154 26.728 306.295 27.064C305.474 27.4 304.746 27.904 304.111 28.576C303.476 29.2107 302.972 30.0133 302.599 30.984C302.226 31.9547 302.039 33.0747 302.039 34.344C302.039 36.7333 302.692 38.6373 303.999 40.056C305.306 41.4747 306.986 42.184 309.039 42.184ZM328.154 60.44V21.744H333.754V25.384C334.5 24.2267 335.62 23.256 337.114 22.472C338.644 21.688 340.418 21.296 342.434 21.296C344.039 21.296 345.57 21.6133 347.026 22.248C348.482 22.8453 349.751 23.7227 350.834 24.88C351.916 26 352.775 27.3627 353.41 28.968C354.082 30.5733 354.418 32.3653 354.418 34.344C354.418 36.3227 354.082 38.1147 353.41 39.72C352.738 41.3253 351.842 42.7067 350.722 43.864C349.639 45.0213 348.37 45.9173 346.914 46.552C345.495 47.1493 344.002 47.448 342.434 47.448C340.642 47.448 339.018 47.112 337.562 46.44C336.143 45.7307 334.986 44.7973 334.09 43.64V60.44H328.154ZM341.09 26.56C338.962 26.56 337.282 27.2507 336.05 28.632C334.818 30.0133 334.164 31.712 334.09 33.728V34.456C334.09 35.5387 334.258 36.5467 334.594 37.48C334.93 38.4133 335.396 39.2347 335.994 39.944C336.628 40.616 337.356 41.1573 338.178 41.568C339.036 41.9787 340.007 42.184 341.09 42.184C343.143 42.184 344.823 41.4747 346.13 40.056C347.436 38.6373 348.09 36.7333 348.09 34.344C348.09 33.0747 347.903 31.9547 347.53 30.984C347.156 30.0133 346.652 29.2107 346.018 28.576C345.383 27.904 344.636 27.4 343.778 27.064C342.956 26.728 342.06 26.56 341.09 26.56ZM358.917 21.744H364.853V31.264H367.597L374.429 21.744H380.701V22.528L372.469 33.28L382.661 46.16V47H375.997L367.373 35.912H364.853V47H358.917V21.744ZM396.083 47.448C394.104 47.448 392.275 47.1493 390.595 46.552C388.952 45.9173 387.533 45.04 386.339 43.92C385.144 42.7627 384.211 41.4 383.539 39.832C382.867 38.2267 382.531 36.4347 382.531 34.456C382.531 32.4027 382.885 30.5733 383.595 28.968C384.304 27.3253 385.256 25.944 386.451 24.824C387.645 23.6667 389.045 22.7893 390.651 22.192C392.293 21.5947 394.011 21.296 395.803 21.296C397.781 21.296 399.536 21.6507 401.067 22.36C402.635 23.032 403.941 23.9653 404.987 25.16C406.069 26.3547 406.891 27.736 407.451 29.304C408.011 30.872 408.291 32.5147 408.291 34.232V35.688H388.411C388.709 37.8907 389.587 39.5893 391.043 40.784C392.499 41.9413 394.328 42.52 396.531 42.52C398.061 42.52 399.461 42.24 400.731 41.68C402.037 41.12 403.12 40.336 403.979 39.328L407.451 42.464C406.144 44.1067 404.501 45.3573 402.523 46.216C400.581 47.0373 398.435 47.448 396.083 47.448ZM395.467 26.224C393.712 26.224 392.219 26.7093 390.987 27.68C389.755 28.6507 388.933 30.0133 388.523 31.768H402.411C402.112 30.2 401.347 28.8933 400.115 27.848C398.92 26.7653 397.371 26.224 395.467 26.224ZM417.622 27.008H409.446V21.744H431.79V27.008H423.614V47H417.622V27.008Z" fill="#898989"/>
<defs>
<clipPath id="clip0_786_4051">
<path d="M0 27C0 13.7452 10.7452 3 24 3C37.2548 3 48 13.7452 48 27C48 40.2548 37.2548 51 24 51C10.7452 51 0 40.2548 0 27Z" fill="white"/>
</clipPath>
</defs>
</svg>
